<?xml version="1.0" standalone="no"?>
<!DOCTYPE svg PUBLIC "-//W3C//DTD SVG 20010904//EN"
 "http://www.w3.org/TR/2001/REC-SVG-20010904/DTD/svg10.dtd">
<svg version="1.0" xmlns="http://www.w3.org/2000/svg"
 width="500.000000pt" height="500.000000pt" viewBox="0 0 500.000000 500.000000"
 preserveAspectRatio="xMidYMid meet">

<g transform="translate(0.000000,500.000000) scale(0.100000,-0.100000)"
fill="#000000" stroke="none">
<path d="M0 2500 l0 -2500 2500 0 2500 0 0 2500 0 2500 -2500 0 -2500 0 0
-2500z m2530 835 c1 -39 1 -39 14 -16 15 27 27 16 28 -27 2 -58 -77 -172 -118
-172 -31 0 -10 -27 52 -70 68 -46 85 -68 114 -154 l17 -51 181 -3 c181 -2 182
-3 181 -25 -1 -37 -104 -322 -116 -320 -6 1 -9 -6 -6 -18 6 -20 3 -20 -193
-17 -146 2 -204 7 -214 16 -59 52 -249 181 -267 182 -11 0 -44 -18 -72 -40
l-50 -40 -7 46 c-5 39 -11 47 -40 59 -19 8 -34 20 -34 27 0 27 92 303 106 319
8 9 43 27 76 39 34 12 80 36 102 52 22 16 49 27 58 25 16 -5 18 2 18 49 0 33
-4 54 -11 54 -7 0 -9 12 -7 31 4 28 1 33 -30 46 -58 24 -28 26 40 2 l63 -22
42 26 c23 14 45 36 48 48 10 31 25 5 25 -46z m40 -920 c7 -8 8 -15 2 -15 -5 0
-15 7 -22 15 -7 8 -8 15 -2 15 5 0 15 -7 22 -15z m35 -54 c7 -23 50 -33 164
-36 78 -2 86 -4 107 -29 29 -32 24 -47 -24 -74 -48 -26 -109 -34 -201 -24 -73
7 -74 8 -78 37 -3 16 -9 35 -15 42 -7 8 -5 19 6 35 9 12 16 33 16 45 0 28 16
30 25 4z m-111 -67 l49 -23 -32 -31 c-19 -20 -37 -30 -47 -26 -8 3 -13 2 -10
-3 4 -5 -15 -16 -41 -25 -124 -42 -171 6 -89 93 53 56 78 59 170 15z m72 -225
c18 -5 40 -19 50 -30 17 -19 17 -20 -4 -42 -21 -21 -23 -21 -51 -4 -42 24
-121 23 -155 -4 -55 -44 -72 -127 -40 -195 21 -44 59 -64 122 -64 62 0 102 28
102 71 0 27 -3 29 -35 29 -33 0 -35 2 -35 35 l0 35 70 0 70 0 0 -120 0 -120
-30 0 c-20 0 -30 5 -30 15 0 19 -5 19 -36 -2 -38 -24 -128 -22 -181 6 -61 31
-94 85 -100 164 -8 100 27 176 101 214 62 33 106 35 182 12z m699 -8 c33 -18
75 -91 75 -131 0 -42 -42 -113 -79 -134 -45 -26 -124 -25 -160 1 -92 69 -96
190 -9 257 52 39 112 41 173 7z m-2054 -51 c28 -38 54 -70 58 -70 4 0 29 32
56 70 48 69 49 70 93 70 34 0 42 -3 35 -12 -5 -7 -42 -59 -81 -114 l-72 -101
0 -97 0 -96 -35 0 -35 0 0 101 0 101 -75 104 c-41 57 -75 106 -75 109 0 3 18
5 40 5 38 0 42 -4 91 -70z m466 -37 c23 -60 59 -154 81 -210 l40 -103 -37 0
c-31 0 -40 5 -49 25 -11 23 -17 25 -82 25 -65 0 -71 -2 -82 -25 -9 -20 -18
-25 -49 -25 l-37 0 40 103 c22 56 58 150 81 210 22 59 43 107 46 107 4 0 25
-48 48 -107z m339 -35 l99 -143 3 143 3 142 39 0 40 0 0 -210 0 -210 -39 0
c-38 0 -39 1 -137 142 l-99 141 -3 -141 -3 -142 -39 0 -40 0 0 210 0 210 38 0
c38 0 39 -1 138 -142z m954 139 c0 -2 -31 -80 -69 -175 l-69 -172 69 0 69 0 0
-35 0 -35 -120 0 c-66 0 -120 3 -120 6 0 3 29 77 65 165 36 87 65 164 65 169
0 6 -29 10 -65 10 l-65 0 0 35 0 35 120 0 c66 0 120 -1 120 -3z m600 -152 c40
-86 76 -158 80 -160 3 -2 40 68 80 155 l73 160 39 0 38 0 0 -210 0 -210 -35 0
-35 0 -1 128 -1 127 -60 -127 c-61 -127 -62 -128 -95 -128 -33 0 -35 2 -96
127 l-62 127 -3 -127 -3 -127 -34 0 -35 0 0 210 0 210 38 0 38 0 74 -155z
m-250 -230 l0 -35 -140 0 -140 0 0 35 0 35 140 0 140 0 0 -35z"/>
<path d="M3165 2012 c-64 -13 -88 -97 -40 -142 67 -63 174 13 133 96 -14 30
-61 53 -93 46z"/>
<path d="M1603 1835 l-21 -65 48 0 48 0 -21 65 c-12 36 -24 65 -27 65 -3 0
-15 -29 -27 -65z"/>
</g>
</svg>
